<?xml version="1.0" encoding="UTF-8" standalone="no"?>
<!DOCTYPE svg PUBLIC "-//W3C//DTD SVG 1.0//EN"
 "http://www.w3.org/TR/2001/REC-SVG-20010904/DTD/svg10.dtd" [
 <!ATTLIST svg xmlns:xlink CDATA #FIXED "http://www.w3.org/1999/xlink">
]>
<!-- Generated by Graphviz version 2.16 (Fri Feb  8 12:54:58 UTC 2008)
     For user: (scottkirkwood) Scott Kirkwood -->
<!-- Title: G Pages: 1 -->
<svg width="62pt" height="132pt"
 viewBox="0.00 0.00 62.00 132.00" xmlns="http://www.w3.org/2000/svg" xmlns:xlink="http://www.w3.org/1999/xlink">
  <defs>
    <filter
      id="filterBlur">
      <feGaussianBlur
      stdDeviation="0.69"
      id="feGaussianBlurBlur" />
    </filter>
  </defs>

<g id="graph0" class="graph" transform="scale(1 1) rotate(0) translate(4 128)">
<title>G</title>
<!-- Hello -->
<g id="node1" class="node"><title>Hello</title>
<rect fill="#999999" stroke="#999999" stroke-width="1" transform="translate(1, 1)" style="opacity:0.75;filter:url(#filterBlur)"  x="0" y="-124" width="54" height="36" rx="5" ry="5"/>
<rect style="fill:lightgrey;stroke:black;" x="0" y="-124" width="54" height="36" rx="5" ry="5"/>
<text text-anchor="middle" x="27" y="-101.65" style="font-family:Times New Roman;font-size:12px;" xml:space="preserve">Hello</text>
</g>
<!-- World -->
<g id="node3" class="node"><title>World</title>
<rect fill="#999999" stroke="#999999" stroke-width="1" transform="translate(1, 1)" style="opacity:0.75;filter:url(#filterBlur)"  x="0" y="-36" width="54" height="35" rx="5" ry="5"/>
<rect style="fill:lightgrey;stroke:black;" x="0" y="-36" width="54" height="35" rx="5" ry="5"/>
<text text-anchor="middle" x="27" y="-13.65" style="font-family:Times New Roman;font-size:12px;" xml:space="preserve">World</text>
</g>
<!-- Hello&#45;&gt;World -->
<g id="edge2" class="edge"><title>Hello&#45;&gt;World</title>
<path fill="none" stroke="#999999" stroke-width="1" transform="translate(1, 1)"   d="M27,-88C27,-76 27,-60 27,-46"/>
<path style="fill:none;stroke:black;" d="M27,-88C27,-76 27,-60 27,-46"/>
<polygon fill="#999999" stroke="#999999" stroke-width="1" transform="translate(1, 1)" style="opacity:0.75;filter:url(#filterBlur)"  points="30.5001,-46 27,-36 23.5001,-46 30.5001,-46"/>
<polygon style="fill:black;stroke:black;" points="30.5001,-46 27,-36 23.5001,-46 30.5001,-46"/>
<text text-anchor="middle" x="32" y="-57.65" style="font-family:Times New Roman;font-size:12px;" xml:space="preserve">to</text>
</g>
</g>
</svg>
