<?xml version="1.0" encoding="UTF-8" standalone="no"?>
<!DOCTYPE svg PUBLIC "-//W3C//DTD SVG 1.0//EN"
 "http://www.w3.org/TR/2001/REC-SVG-20010904/DTD/svg10.dtd" [
 <!ATTLIST svg xmlns:xlink CDATA #FIXED "http://www.w3.org/1999/xlink">
]>
<!-- Generated by Graphviz version 2.12 (Tue Sep  4 16:56:48 UTC 2007)
     For user: (scottkirkwood) Scott Kirkwood,,, -->
<!-- Title: G Pages: 1 -->
<svg width="0.85in" height="1.60in"
 xmlns="http://www.w3.org/2000/svg" xmlns:xlink="http://www.w3.org/1999/xlink">
  <defs>
    <filter
      id="filterBlur">
      <feGaussianBlur
      stdDeviation="0.69"
      id="feGaussianBlurBlur" />
    </filter>
  </defs>

<g id="graph0" class="graph" transform="scale(1.33333 1.33333) rotate(0) translate(4 112)">
<title>G</title>
<!-- Hello -->
<g id="node1" class="node"><title>Hello</title>
<rect fill="#999999" stroke="#999999" stroke-width="1" transform="translate(2, 2)" style="opacity:0.75;filter:url(#filterBlur)"  x="0" y="-108" width="54" height="36" rx="5" ry="5"/>
<rect style="fill:lightgrey;stroke:black;" x="0" y="-108" width="54" height="36" rx="5" ry="5"/>
<text text-anchor="middle" x="27" y="-86" style="font-family:Nimbus Roman No9 L;font-weight:regular;font-size:11.34pt;" xml:space="preserve">Hello</text>
</g>
<!-- World -->
<g id="node3" class="node"><title>World</title>
<rect fill="#999999" stroke="#999999" stroke-width="1" transform="translate(2, 2)" style="opacity:0.75;filter:url(#filterBlur)"  x="0" y="-36" width="54" height="36" rx="5" ry="5"/>
<rect style="fill:lightgrey;stroke:black;" x="0" y="-36" width="54" height="36" rx="5" ry="5"/>
<text text-anchor="middle" x="27" y="-14" style="font-family:Nimbus Roman No9 L;font-weight:regular;font-size:11.34pt;" xml:space="preserve">World</text>
</g>
<!-- Hello&#45;&gt;World -->
<g id="edge2" class="edge"><title>Hello&#45;&gt;World</title>
<path fill="none" stroke="#999999" stroke-width="1" transform="translate(2, 2)"   d="M27,-72C27,-64 27,-55 27,-46"/>
<path style="fill:none;stroke:black;" d="M27,-72C27,-64 27,-55 27,-46"/>
<polygon fill="#999999" stroke="#999999" stroke-width="1" transform="translate(2, 2)" style="opacity:0.75;filter:url(#filterBlur)"  points="30.5001,-46 27,-36 23.5001,-46 30.5001,-46"/>
<polygon style="fill:black;stroke:black;" points="30.5001,-46 27,-36 23.5001,-46 30.5001,-46"/>
</g>
</g>
</svg>
